<?xml version="1.0" encoding="utf-8"?>
<!-- Generator: Adobe Illustrator 18.0.0, SVG Export Plug-In . SVG Version: 6.00 Build 0)  -->
<!DOCTYPE svg PUBLIC "-//W3C//DTD SVG 1.1//EN" "http://www.w3.org/Graphics/SVG/1.1/DTD/svg11.dtd">
<svg version="1.1" id="Layer_1" xmlns="http://www.w3.org/2000/svg" xmlns:xlink="http://www.w3.org/1999/xlink" x="0px" y="0px"
	 viewBox="0 0 64 64" enable-background="new 0 0 64 64" xml:space="preserve">
<g>
	<g>
		<path d="M32,64C14.4,64,0,49.6,0,32S14.4,0,32,0s32,14.4,32,32S49.6,64,32,64z M32,4C16.6,4,4,16.6,4,32s12.6,28,28,28
			s28-12.6,28-28S47.4,4,32,4z"/>
	</g>
	<g id="f">
		<path d="M34.4,47V33.3h4.7l0.7-5.3h-5.4v-3.4c0-1.5,0.4-2.6,2.7-2.6l2.9,0v-4.8c-0.5-0.1-2.2-0.2-4.2-0.2c-4.2,0-7,2.5-7,7V28H24
			v5.3h4.7V47H34.4z"/>
	</g>
</g>
</svg>
