<?xml version="1.0" encoding="utf-8"?>
<!-- Generator: Adobe Illustrator 18.0.0, SVG Export Plug-In . SVG Version: 6.00 Build 0)  -->
<!DOCTYPE svg PUBLIC "-//W3C//DTD SVG 1.1//EN" "http://www.w3.org/Graphics/SVG/1.1/DTD/svg11.dtd">
<svg version="1.1" id="Layer_1" xmlns="http://www.w3.org/2000/svg" xmlns:xlink="http://www.w3.org/1999/xlink" x="0px" y="0px"
	 viewBox="0 0 64 64" enable-background="new 0 0 64 64" xml:space="preserve">
<g>
	<g>
		<path d="M32,64C14.4,64,0,49.6,0,32S14.4,0,32,0s32,14.4,32,32S49.6,64,32,64z M32,4C16.6,4,4,16.6,4,32s12.6,28,28,28
			s28-12.6,28-28S47.4,4,32,4z"/>
	</g>
	<g>
		<rect x="17.5" y="26" width="6.2" height="20"/>
	</g>
	<g>
		<path d="M20.6,23.2c-2,0-3.6-1.6-3.6-3.6s1.6-3.6,3.6-3.6c2,0,3.6,1.6,3.6,3.6S22.6,23.2,20.6,23.2z"/>
	</g>
	<g>
		<path d="M47,46h-6.2v-9.7c0-2.3,0-5.3-3.2-5.3c-3.2,0-3.7,2.5-3.7,5.1V46h-6.2V26h6v2.7h0.1c0.8-1.6,2.9-3.2,5.9-3.2
			c6.3,0,7.5,4.1,7.5,9.5V46z"/>
	</g>
</g>
</svg>
